<?xml version="1.0" standalone="no"?><!DOCTYPE svg PUBLIC "-//W3C//DTD SVG 1.1//EN" "http://www.w3.org/Graphics/SVG/1.1/DTD/svg11.dtd"><svg t="1670823924539" class="icon" viewBox="0 0 1024 1024" version="1.1" xmlns="http://www.w3.org/2000/svg" p-id="4980" xmlns:xlink="http://www.w3.org/1999/xlink" width="200" height="200"><path d="M300.8 579.2c-108.8 9.6-137.6 64-137.6 115.2S192 816 320 816c131.2 0 240-150.4 240-150.4s-147.2-96-259.2-86.4z" p-id="4981"></path><path d="M646.4 713.6S576 800 505.6 838.4c-70.4 38.4-153.6 64-240 38.4-89.6-22.4-150.4-89.6-140.8-208 9.6-118.4 121.6-160 214.4-160 92.8 0 265.6 67.2 265.6 67.2s16-38.4 28.8-80 19.2-76.8 19.2-76.8H281.6v-38.4h179.2v-80l-224 3.2v-54.4h224V128h118.4v121.6h240V304l-240 3.2V384l198.4 3.2s-3.2 41.6-28.8 118.4c-25.6 76.8-48 115.2-48 115.2L992 729.6V147.2C992 83.2 940.8 32 876.8 32H147.2C83.2 32 32 83.2 32 147.2v729.6c0 64 51.2 115.2 115.2 115.2h729.6c54.4 0 102.4-38.4 112-89.6L646.4 713.6z" p-id="4982"></path></svg>