<?xml version="1.0" standalone="no"?><!DOCTYPE svg PUBLIC "-//W3C//DTD SVG 1.1//EN" "http://www.w3.org/Graphics/SVG/1.1/DTD/svg11.dtd"><svg t="1670914529475" class="icon" viewBox="0 0 1024 1024" version="1.1" xmlns="http://www.w3.org/2000/svg" p-id="21915" xmlns:xlink="http://www.w3.org/1999/xlink" width="200" height="200"><path d="M619.758933 838.314667c0 11.895467-9.642667 21.5552-21.538133 21.5552H425.864533a21.5552 21.5552 0 0 1 0-43.093334h172.356267c11.895467 0 21.538133 9.659733 21.538133 21.5552z m-21.538133 32.324266H425.864533c-14.165333 0-25.1392 13.687467-20.4288 28.5696 2.850133 8.977067 11.9296 14.506667 21.333334 14.506667h0.341333c12.424533 0 23.808 7.048533 29.371733 18.176l0.221867 0.443733a44.305067 44.305067 0 0 0 39.611733 24.4736h31.453867c16.776533 0 32.1024-9.472 39.594667-24.4736l0.238933-0.443733a32.8704 32.8704 0 0 1 29.371733-18.158933H597.333333c9.403733 0 18.4832-5.546667 21.333334-14.523734a21.6064 21.6064 0 0 0-20.4288-28.5696z m-86.186667-689.390933c11.912533 0 21.5552-9.659733 21.5552-21.5552v-86.186667a21.5552 21.5552 0 0 0-43.093333 0v86.186667c0 11.895467 9.659733 21.5552 21.5552 21.5552z m-228.488533 82.0224c4.1984 4.215467 9.728 6.314667 15.223467 6.314667a21.538133 21.538133 0 0 0 15.223466-36.778667l-60.928-60.928a21.538133 21.538133 0 1 0-30.464 30.446933l60.928 60.928zM231.970133 461.312c0-11.895467-9.642667-21.538133-21.538133-21.538133H124.245333a21.5552 21.5552 0 0 0 0 43.076266h86.186667c11.895467 0 21.538133-9.642667 21.538133-21.538133z m51.575467 198.0416l-60.928 60.928a21.538133 21.538133 0 1 0 30.446933 30.464l60.928-60.928a21.538133 21.538133 0 1 0-30.446933-30.464z m457.0112 0a21.538133 21.538133 0 1 0-30.464 30.464l60.928 60.928c4.215467 4.215467 9.728 6.314667 15.240533 6.314667a21.538133 21.538133 0 0 0 15.223467-36.778667l-60.928-60.928z m159.2832-219.579733h-86.186667a21.5552 21.5552 0 0 0 0 43.076266h86.186667a21.5552 21.5552 0 0 0 0-43.076266z m-174.523733-170.1888c5.512533 0 11.025067-2.0992 15.240533-6.314667l60.928-60.928a21.538133 21.538133 0 1 0-30.464-30.481067l-60.928 60.945067a21.538133 21.538133 0 0 0 15.223467 36.778667z m-105.557334 514.884266c0 11.895467-9.642667 21.538133-21.538133 21.538134H425.864533a21.469867 21.469867 0 1 1-1.245866-42.9568c-13.397333-121.224533-138.786133-148.224-138.786134-290.9696 0-124.928 101.2736-226.2016 226.218667-226.2016 124.928 0 226.2016 101.2736 226.2016 226.2016 0 142.7456-125.3888 169.745067-138.786133 290.9696 11.298133 0.648533 20.309333 9.949867 20.309333 21.418666z m-157.354666-478.173866a16.1792 16.1792 0 0 0-21.060267-8.9088 189.166933 189.166933 0 0 0-111.650133 127.573333 16.162133 16.162133 0 0 0 31.300266 8.072533 156.672 156.672 0 0 1 92.501334-105.6768 16.1792 16.1792 0 0 0 8.9088-21.060266z" p-id="21916" fill="#439A97"></path></svg>