<?xml version="1.0" standalone="no"?><!DOCTYPE svg PUBLIC "-//W3C//DTD SVG 1.1//EN" "http://www.w3.org/Graphics/SVG/1.1/DTD/svg11.dtd"><svg t="1670913245300" class="icon" viewBox="0 0 1024 1024" version="1.1" xmlns="http://www.w3.org/2000/svg" p-id="15234" xmlns:xlink="http://www.w3.org/1999/xlink" width="200" height="200"><path d="M809.808 458.904a209.104 209.104 0 0 0 28.64-16.56l70.592 40.6 90.368-155.888-69.912-40.192c0.544-5.808 0.8-11.4 0.8-16.864 0-5.456-0.264-11.056-0.8-16.856l69.92-40.2L909.04 57.056l-70.6 40.6a209.104 209.104 0 0 0-28.64-16.56V0H629.072v81.096a209.104 209.104 0 0 0-28.64 16.56L529.84 57.056 439.464 212.944l69.912 40.192c-0.536 5.808-0.8 11.4-0.8 16.864 0 5.456 0.264 11.056 0.8 16.856l-13.68 7.864C414.352 258.408 327.56 240 237.456 240H24.6v30c0 347.384 284.68 630 634.6 630h153.8c35.272 28.952 57.064 76.136 57.064 124h60.24c0-56.544-22.552-112.656-60.24-152.752v-1.248c0-118.04-32.224-231-93.616-330h33.36V458.904zM659.192 840c-294.72 0-538.256-221.464-570.656-505.488L736.216 840h-77.024z m148.416-20.504L141.984 299.8h95.48a569.76 569.76 0 0 1 209.064 39.448L529.84 482.944l70.6-40.6a209.296 209.296 0 0 0 28.64 16.56V540h75.096c59.336 82.992 94.624 178.536 103.44 279.496z m-38.04-408.808l-20.008 7.104V480h-60.24v-62.216l-20.016-7.104c-34.752-12.336-52.144-32.584-63.144-40.912l-54.28 31.208-30.12-51.952 53.752-30.912c-2.736-16.288-6.696-30.632-6.696-48.112 0-17.44 3.92-31.64 6.696-48.112l-53.752-30.912 30.12-51.952 54.272 31.2c11.144-8.424 28.48-28.6 63.152-40.912l20-7.104V60h60.256v62.208l20 7.104c34.624 12.296 51.84 32.352 63.152 40.92l54.272-31.208 30.128 51.952-53.76 30.912c2.744 16.288 6.696 30.632 6.696 48.112 0 17.44-3.928 31.664-6.688 48.112l53.752 30.912-30.128 51.952-54.272-31.2c-11.144 8.424-28.48 28.6-63.144 40.912zM719.44 180c-49.84 0-90.376 40.376-90.376 90S669.6 360 719.44 360c49.824 0 90.368-40.376 90.368-90S769.264 180 719.44 180z m0 120c-16.616 0-30.128-13.456-30.128-30S702.824 240 719.44 240c16.608 0 30.12 13.456 30.12 30s-13.52 30-30.12 30z" fill="#439A97" p-id="15235"></path></svg>